<svg xmlns="http://www.w3.org/2000/svg" viewBox="0 0 533.5 544.3">
  <path fill="#4285F4" d="M533.5 278.4c0-18.5-1.5-36.3-4.3-53.6H272v101.3h146.9c-6.3 34.1-25.1 63.1-53.5 82.5v68.5h86.5c50.5-46.5 79.6-115 79.6-198.7z"/>
  <path fill="#34A853" d="M272 544.3c72.6 0 133.4-24.1 177.9-65.5l-86.5-68.5c-24.1 16.2-55 25.7-91.4 25.7-70.4 0-130-47.4-151.4-111.3H32.9v69.9C77.2 478.4 168.4 544.3 272 544.3z"/>
  <path fill="#FBBC05" d="M120.6 322.2c-8.8-25.2-8.8-52.4 0-77.6V174.7H32.9c-36.2 72.4-36.2 158.5 0 230.9l87.7-69.3z"/>
  <path fill="#EA4335" d="M272 107.7c38.9-.6 76.3 14.3 104.7 41.7l78.6-78.6C405.3 24.4 343.3-0.6 272 0 168.4 0 77.2 65.9 32.9 174.7l87.7 69.3c21.4-63.9 81-111.3 151.4-111.3z"/>
</svg>
